<svg xmlns="http://www.w3.org/2000/svg" viewBox="0 0 166.45 60.42"><path d="m62.14.75c-11.1 0-20.1 9-20.1 20.1s9 20.1 20.1 20.1 20.1-9 20.1-20.1-9-20.1-20.1-20.1zm-.05 27.59c-4.13 0-7.48-3.35-7.48-7.48s3.35-7.48 7.48-7.48 7.48 3.35 7.48 7.48-3.35 7.48-7.48 7.48z" fill="#4baf9f"></path><path d="m27.04 23.08c-.94 3.05-3.79 5.26-7.15 5.26-4.13 0-7.48-3.35-7.48-7.48s3.35-7.48 7.48-7.48 7.4 3.27 7.48 7.33h12.58c-.63-10.47-9.31-19.98-19.94-19.98s-20.01 8.96-20.01 20 8.94 19.99 19.97 20.01 20.05 0 20.05 0v-17.67h-12.98z" fill="#243670"></path><path d="m112.1 23.59c-1.14 2.84-3.91 4.84-7.15 4.84-4.26 0-7.71-3.45-7.71-7.71s3.45-7.71 7.71-7.71c3.23 0 5.99 1.99 7.14 4.81l12.18-4.69c-3.03-7.69-10.51-13.13-19.27-13.13-11.44 0-20.71 9.27-20.71 20.71s9.27 20.71 20.71 20.71c8.69 0 16.13-5.36 19.2-12.94z" fill="#8bae61"></path><path d="m154.23 23.59c-1.14 2.84-3.91 4.84-7.15 4.84-4.26 0-7.71-3.45-7.71-7.71s3.45-7.71 7.71-7.71c3.23 0 5.99 1.99 7.14 4.81l12.18-4.69c-3.03-7.69-10.51-13.13-19.27-13.13-11.44 0-20.71 9.27-20.71 20.71s9.27 20.71 20.71 20.71c8.69 0 16.13-5.36 19.2-12.94z" fill="#492766"></path><g fill="#010101"><path d="m.41 51.14c0-.48.08-.91.25-1.28s.39-.68.68-.93c.27-.24.58-.42.92-.54s.69-.19 1.04-.19.69.06 1.04.19c.34.12.66.3.94.54.27.25.49.56.66.93s.25.8.25 1.28v.61h-1.72v-.61c0-.42-.12-.72-.35-.92s-.5-.3-.82-.3-.59.1-.82.3-.35.5-.35.92v6.35c0 .42.12.72.35.92s.5.3.82.3.59-.1.82-.3.35-.5.35-.92v-2.26h-1.37v-1.52h3.09v3.78c0 .51-.08.94-.25 1.3s-.39.66-.66.89c-.28.25-.59.43-.94.56-.34.12-.69.19-1.04.19s-.69-.06-1.04-.19c-.34-.12-.65-.31-.92-.56-.28-.24-.51-.53-.68-.89s-.25-.79-.25-1.3z"></path><path d="m7.6 60.32v-8.56h1.72v.91c.35-.31.69-.56 1.03-.74s.75-.27 1.25-.27v1.82c-.17-.07-.34-.1-.52-.1s-.37.03-.58.09-.4.17-.57.31c-.18.15-.33.34-.44.57s-.17.53-.17.88v5.08h-1.72z"></path><path d="m17.27 56.69h-3.41v1.16c0 .27.08.48.23.62.15.15.36.22.62.22.33 0 .54-.1.65-.29s.17-.38.19-.57h1.72c0 .75-.23 1.36-.69 1.82-.23.24-.5.42-.81.56-.31.13-.67.2-1.06.2-.54 0-1-.11-1.38-.34s-.67-.52-.87-.89c-.12-.23-.21-.48-.25-.78-.04-.29-.07-.61-.07-.96v-2.82c0-.35.02-.67.07-.96.04-.29.13-.55.25-.78.2-.37.49-.67.87-.9.38-.22.84-.34 1.38-.34.39 0 .75.07 1.07.2s.59.32.82.56c.45.51.68 1.14.68 1.91v2.36zm-3.41-1.35h1.69v-.98c0-.33-.08-.57-.23-.73s-.36-.25-.62-.25-.46.08-.62.25-.23.41-.23.73v.98z"></path><path d="m21.8 60.32v-.88h-.03c-.23.32-.45.56-.68.73s-.55.25-.97.25c-.2 0-.41-.03-.62-.09s-.41-.18-.6-.35c-.19-.16-.35-.39-.46-.68-.12-.3-.18-.68-.18-1.16s.04-.91.12-1.27.23-.67.44-.92c.2-.24.48-.41.83-.53s.79-.18 1.33-.18h.19c.07 0 .13 0 .19.02s.12.02.2.02.16 0 .25.02v-.89c0-.29-.06-.53-.19-.73-.12-.19-.35-.29-.68-.29-.23 0-.43.07-.62.22s-.31.36-.36.64h-1.67c.04-.77.3-1.38.78-1.86.23-.23.5-.4.81-.53s.67-.19 1.06-.19c.36 0 .7.06 1.01.17s.59.28.83.51c.23.23.41.51.54.84.14.34.2.73.2 1.18v5.96h-1.72zm0-3.68c-.19-.03-.35-.05-.47-.05-.37 0-.69.09-.95.26s-.4.49-.4.95c0 .33.08.59.24.79s.38.3.66.3.52-.1.68-.29.25-.46.25-.81v-1.17z"></path><path d="m24.79 51.76v-2.6h1.72v2.6h1.06v1.35h-1.06v4.74c0 .2.02.36.06.47s.1.2.19.25c.09.06.2.09.33.1s.29.02.48.02v1.62h-.71c-.39 0-.72-.06-.99-.19-.26-.12-.48-.28-.63-.47-.16-.19-.27-.41-.35-.65-.07-.24-.11-.48-.11-.7v-5.2h-.86v-1.35h.86z"></path><path d="m33.21 56.69h-3.41v1.16c0 .27.08.48.23.62.15.15.36.22.62.22.33 0 .54-.1.65-.29s.17-.38.19-.57h1.72c0 .75-.23 1.36-.69 1.82-.23.24-.5.42-.81.56-.31.13-.67.2-1.06.2-.54 0-1-.11-1.38-.34s-.67-.52-.87-.89c-.12-.23-.21-.48-.25-.78-.04-.29-.07-.61-.07-.96v-2.82c0-.35.02-.67.07-.96.04-.29.13-.55.25-.78.2-.37.49-.67.87-.9.38-.22.84-.34 1.38-.34.39 0 .75.07 1.07.2s.59.32.82.56c.45.51.68 1.14.68 1.91v2.36zm-3.41-1.35h1.69v-.98c0-.33-.08-.57-.23-.73s-.36-.25-.62-.25-.46.08-.62.25-.23.41-.23.73v.98z"></path><path d="m34.48 60.32v-8.56h1.72v.91c.35-.31.69-.56 1.03-.74s.75-.27 1.25-.27v1.82c-.17-.07-.34-.1-.52-.1s-.37.03-.58.09-.4.17-.57.31c-.18.15-.33.34-.44.57s-.17.53-.17.88v5.08h-1.72z"></path><path d="m42.31 51.14c0-.48.08-.91.25-1.28s.39-.68.68-.93c.27-.24.58-.42.92-.54s.69-.19 1.04-.19.69.06 1.04.19.66.3.94.54c.27.25.49.56.66.93s.25.8.25 1.28v6.35c0 .51-.08.94-.25 1.3s-.39.66-.66.89c-.28.25-.59.43-.94.56s-.69.19-1.04.19-.69-.06-1.04-.19c-.34-.12-.65-.31-.92-.56-.28-.24-.51-.53-.68-.89s-.25-.79-.25-1.3zm1.72 6.35c0 .42.12.72.35.92s.5.3.82.3.59-.1.82-.3.35-.5.35-.92v-6.35c0-.42-.12-.72-.35-.92s-.5-.3-.82-.3-.59.1-.82.3-.35.5-.35.92z"></path><path d="m52.62 54.16c-.01-.29-.1-.51-.28-.66-.17-.15-.37-.22-.6-.22-.27 0-.48.09-.62.26-.15.17-.22.37-.22.6 0 .16.04.31.12.46s.28.29.61.41l1.01.41c.64.25 1.08.59 1.33 1.01.24.43.36.9.36 1.4 0 .36-.06.69-.19 1s-.31.58-.53.82-.5.42-.81.56c-.32.13-.66.2-1.03.2-.7 0-1.28-.22-1.76-.66-.24-.21-.43-.48-.57-.8-.15-.32-.23-.69-.24-1.12h1.62c.03.24.12.46.24.66s.36.3.68.3c.25 0 .47-.08.67-.24s.3-.39.3-.68c0-.24-.06-.44-.19-.61-.12-.17-.35-.31-.68-.44l-.83-.3c-.54-.2-.97-.5-1.27-.9-.31-.4-.46-.89-.46-1.46 0-.36.07-.69.2-1 .14-.31.32-.58.56-.8.23-.23.49-.4.79-.52s.63-.18.98-.18.67.06.97.19c.3.12.55.3.77.52.21.23.38.49.51.8.12.31.19.64.19.99h-1.62z"></path><path d="m55.44 60.32v-12.02h1.72v4.29h.03c.18-.27.4-.49.65-.67.25-.17.58-.26.97-.26.21 0 .43.04.64.11s.41.19.57.36.3.39.41.65c.1.26.15.59.15.97v6.57h-1.72v-5.93c0-.31-.07-.56-.22-.74s-.35-.27-.62-.27c-.33 0-.55.1-.68.3-.12.2-.19.5-.19.88v5.76h-1.72z"></path><path d="m65.27 60.32v-.88h-.03c-.23.32-.45.56-.68.73s-.55.25-.97.25c-.2 0-.41-.03-.62-.09s-.41-.18-.6-.35c-.19-.16-.35-.39-.46-.68-.12-.3-.18-.68-.18-1.16s.04-.91.12-1.27.23-.67.44-.92c.2-.24.48-.41.83-.53s.79-.18 1.33-.18h.19c.07 0 .13 0 .19.02s.12.02.2.02.16 0 .25.02v-.89c0-.29-.06-.53-.19-.73-.12-.19-.35-.29-.68-.29-.23 0-.43.07-.62.22s-.31.36-.36.64h-1.67c.04-.77.3-1.38.78-1.86.23-.23.5-.4.81-.53s.67-.19 1.06-.19c.36 0 .7.06 1.01.17s.59.28.83.51c.23.23.41.51.54.84.14.34.2.73.2 1.18v5.96h-1.72zm0-3.68c-.19-.03-.35-.05-.47-.05-.37 0-.69.09-.95.26s-.4.49-.4.95c0 .33.08.59.24.79s.38.3.66.3.52-.1.68-.29.25-.46.25-.81v-1.17z"></path><path d="m76.48 51.76-2.03 8.56h-1.52l-.95-5.08h-.03l-.95 5.08h-1.52l-2.03-8.56h1.82l1.05 5.32h.03l.96-5.32h1.35l.91 5.32h.03l1.03-5.32h1.82z"></path><path d="m80.36 60.32v-.88h-.03c-.23.32-.45.56-.68.73s-.55.25-.97.25c-.2 0-.41-.03-.62-.09s-.41-.18-.6-.35c-.19-.16-.35-.39-.46-.68-.12-.3-.18-.68-.18-1.16s.04-.91.12-1.27.23-.67.44-.92c.2-.24.48-.41.83-.53s.79-.18 1.33-.18h.19c.07 0 .13 0 .19.02s.12.02.2.02.16 0 .25.02v-.89c0-.29-.06-.53-.19-.73-.12-.19-.35-.29-.68-.29-.23 0-.43.07-.62.22s-.31.36-.36.64h-1.67c.04-.77.3-1.38.78-1.86.23-.23.5-.4.81-.53s.67-.19 1.06-.19c.36 0 .7.06 1.01.17s.59.28.83.51c.23.23.41.51.54.84.14.34.2.73.2 1.18v5.96h-1.72zm0-3.68c-.19-.03-.35-.05-.47-.05-.37 0-.69.09-.95.26s-.4.49-.4.95c0 .33.08.59.24.79s.38.3.66.3.52-.1.68-.29.25-.46.25-.81v-1.17z"></path><path d="m89.3 54c0-.27-.11-.97-.9-.97-.87 0-.94.75-.94 1.16v4.14c0 .27.12 1 .89 1 .43 0 .95-.19.95-1.07v-.24h.83v.29c0 1.1-.5 1.83-1.82 1.83-1.54 0-1.68-1.25-1.68-1.69v-4.54c0-.87.6-1.67 1.72-1.67.95 0 1.74.46 1.74 1.68v.49h-.8v-.41z"></path><path d="m91.07 52.34h.82v2.78c.35-.47.8-.62 1.17-.62.97 0 1.14.73 1.14 1.26v4.27h-.82v-3.88c0-.42-.16-.84-.69-.84-.67 0-.8.66-.8 1v3.73h-.82v-7.68z"></path><path d="m97.72 59.48h-.01c-.27.32-.54.63-1.23.63-.87 0-1.12-.66-1.12-1.52 0-1.15.37-1.8 1.59-1.8.12 0 .3 0 .77.04v-.8c0-.31-.22-.73-.77-.73-.29 0-.66.13-.75.67h-.79c0-.92.7-1.47 1.59-1.47 1.26 0 1.54.93 1.54 1.63v3.89h-.82zm0-2.05c-.23-.03-.43-.05-.56-.05-.47 0-.98.25-.98 1.05s.23.98.7.98c.34 0 .83-.45.83-1.02v-.95z"></path><path d="m100.61 54.58v.54c.4-.52.83-.62 1.16-.62.53 0 .82.2 1.08.62.38-.48.71-.62 1.18-.62.76 0 1.12.52 1.12 1.28v4.25h-.82v-3.88c0-.47-.2-.84-.69-.84s-.76.47-.76 1v3.73h-.82v-3.88c0-.34-.13-.84-.68-.84s-.77.49-.77 1v3.73h-.82v-5.44h.82z"></path><path d="m106.41 52.34h.82v2.78c.35-.47.8-.62 1.17-.62.97 0 1.14.73 1.14 1.26v3.09c0 .53-.18 1.26-1.14 1.26-.37 0-.82-.15-1.17-.63v.54h-.82zm2.31 6.12v-2.33c0-.42-.16-.84-.69-.84-.67 0-.8.66-.8 1v2.02c0 .34.13 1 .8 1 .53 0 .69-.43.69-.85z"></path><path d="m113.03 58.5h.82v.08c0 .54-.25 1.54-1.51 1.54-1.36 0-1.59-1.11-1.59-1.58v-2.52c0-.43.23-1.51 1.54-1.51s1.59 1.09 1.59 1.56v1.56h-2.3v.87c0 .58.26.83.77.83s.69-.3.69-.75v-.07zm.02-1.5v-.93c0-.35-.16-.77-.74-.77s-.75.47-.75.81v.89h1.48z"></path><path d="m115.86 54.58v.86c.58-.79 1.09-.93 1.51-.94v.92h-.15c-.6 0-1.36.24-1.36 1.44v3.17h-.82v-5.44h.82z"></path><path d="m120.53 56.03c0-.41.23-1.54 1.57-1.54s1.57 1.13 1.57 1.52v2.53c0 .44-.23 1.56-1.57 1.56s-1.57-1.12-1.57-1.56v-2.52zm2.31.15c0-.6-.34-.89-.75-.89s-.75.29-.75.89v2.24c0 .57.26.89.75.89s.75-.3.75-.89z"></path><path d="m125.13 55.24h-.59v-.66h.59v-.82c0-.8.27-1.42 1.49-1.42h.25v.71h-.23c-.43 0-.7.22-.7.75v.78h.92v.66h-.91v4.78h-.82z"></path><path d="m132.74 54c0-.27-.11-.97-.9-.97-.87 0-.94.75-.94 1.16v4.14c0 .27.12 1 .89 1 .43 0 .95-.19.95-1.07v-.24h.83v.29c0 1.1-.5 1.83-1.82 1.83-1.54 0-1.68-1.25-1.68-1.69v-4.54c0-.87.6-1.67 1.72-1.67.95 0 1.74.46 1.74 1.68v.49h-.8v-.41z"></path><path d="m134.46 56.03c0-.41.23-1.54 1.57-1.54s1.57 1.13 1.57 1.52v2.53c0 .44-.23 1.56-1.57 1.56s-1.57-1.12-1.57-1.56v-2.52zm2.31.15c0-.6-.34-.89-.75-.89s-.75.29-.75.89v2.24c0 .57.26.89.75.89s.75-.3.75-.89z"></path><path d="m139.63 54.58v.54c.4-.52.83-.62 1.16-.62.53 0 .82.2 1.08.62.38-.48.71-.62 1.18-.62.76 0 1.12.52 1.12 1.28v4.25h-.82v-3.88c0-.47-.2-.84-.69-.84s-.76.47-.76 1v3.73h-.82v-3.88c0-.34-.13-.84-.68-.84s-.77.49-.77 1v3.73h-.82v-5.44h.82z"></path><path d="m146.25 54.58v.54c.4-.52.83-.62 1.16-.62.53 0 .82.2 1.08.62.38-.48.71-.62 1.18-.62.76 0 1.12.52 1.12 1.28v4.25h-.82v-3.88c0-.47-.2-.84-.69-.84s-.76.47-.76 1v3.73h-.82v-3.88c0-.34-.13-.84-.68-.84s-.77.49-.77 1v3.73h-.82v-5.44h.82z"></path><path d="m154.28 58.5h.82v.08c0 .54-.25 1.54-1.51 1.54-1.36 0-1.59-1.11-1.59-1.58v-2.52c0-.43.23-1.51 1.54-1.51s1.59 1.09 1.59 1.56v1.56h-2.3v.87c0 .58.26.83.77.83s.69-.3.69-.75v-.07zm.02-1.5v-.93c0-.35-.16-.77-.74-.77s-.75.47-.75.81v.89h1.48z"></path><path d="m157.11 54.58v.86c.58-.79 1.09-.93 1.51-.94v.92h-.15c-.6 0-1.36.24-1.36 1.44v3.17h-.82v-5.44h.82z"></path><path d="m161.57 58.35h.82v.22c0 .54-.33 1.54-1.59 1.54-1.36 0-1.59-1.11-1.59-1.58v-2.47c0-.45.23-1.57 1.59-1.57s1.59 1.01 1.59 1.52v.24h-.82v-.08c0-.61-.35-.89-.77-.89s-.77.27-.77.89v2.24c0 .58.26.89.77.89s.77-.3.77-.89v-.07z"></path><path d="m165.6 58.5h.82v.08c0 .54-.25 1.54-1.51 1.54-1.36 0-1.59-1.11-1.59-1.58v-2.52c0-.43.23-1.51 1.54-1.51s1.59 1.09 1.59 1.56v1.56h-2.3v.87c0 .58.26.83.77.83s.69-.3.69-.75v-.07zm.02-1.5v-.93c0-.35-.16-.77-.74-.77s-.75.47-.75.81v.89h1.48z"></path></g></svg>