<svg xmlns="http://www.w3.org/2000/svg" id="Layer_1" data-name="Layer 1" viewBox="0 0 306.88 79.37"><defs><style>.cls-1{fill:#002f57}</style></defs><path d="M0 10.57c1.16.24 2.33.4 3.48.4 1.16 0 2.31-.16 3.47-.41 11.4 12.71 22.71 25.35 34.34 38.06-.27-12.73-.74-34.5-1.36-38.1 1.16.24 2.33.4 3.48.4 1.16 0 2.31-.16 3.47-.41-.74 23.3-.51 33.94-.06 55.24-1.09-.24-2.09-.4-3.18-.39-1.08 0-2.08.16-3 .4C29.78 52.81 18.22 39.86 6.05 26.9c-.03 6 .12 12.65.24 18.65.27 12.81.6 17.29.9 20.25-1.24-.24-2.48-.4-3.64-.39-1.16 0-2.39.16-3.55.4.34-2.32 1.05-22.98.7-39.31-.15-7.21-.57-12.09-.73-15.93ZM100.5 21.62c-3.35-4.8-8.36-8-15.39-7.99-9.58.01-19.29 8.28-18.93 25.09.27 12.73 7.35 22.32 19.25 22.31 2.63 0 7.17-.57 8.39-1.45.12-.73-.26-12.65-.26-12.65l-9.54.18s-.12-6.2-.23-7.72c2.93.46 5.8.65 10.46.65 7.81-.01 9.87-.52 10.82-.68-.35 1.68-.44 9.16-.33 14.28.07 3.36.24 7.61.42 8.81-6.68 2.01-13.75 3.54-20.55 3.55-17.77.03-30.74-10.44-31.09-26.77C53.09 18.9 66.69 8.71 84.85 8.69c7.8-.01 13.09 1.74 18.72 4.78-.79 2.72-1.58 5.45-1.99 8.17h-1.08ZM156.91 55.57c-.8 2.24-1.37 4.56-1.55 6.81-4.05 2.25-9.35 3.54-15.68 3.54-17.92.03-28.75-11.57-29.08-26.7-.47-22.09 13.79-30.6 30.02-30.62 5.41 0 12.24 1.66 15.84 3.9-.95 2.64-1.43 5.45-1.6 8.17h-1.08c-3.97-4.96-7.95-7.11-13.44-7.1-8.27.01-17.45 7.47-17.09 24.44.35 16.49 9.91 22.96 18.8 22.95 4.95 0 10.61-2.42 13.86-6.03l1.02.64ZM189.03 8.53c16.38-.02 29.47 9.24 29.89 28.54.34 15.85-11.67 28.75-28.89 28.78-16.3.02-29.62-8.6-30.05-28.61-.34-15.77 11.13-28.68 29.05-28.7Zm-.13 4.56c-10.58.01-16.53 11.07-16.23 24.84.37 17.05 8.06 22.97 16.71 22.95 9.27-.01 17.21-8.03 16.84-25.48-.3-13.85-7.35-22.33-17.32-22.31ZM257.15 50.62c3.46-1.42 5.12-1.75 5.12-1.75 1.78 4.02 4.38 10.6 6.93 15.99-2.48-.16-4.64-.39-6.81-.39-2.16 0-4.4.25-6.56.41-1.74-5.44-3.52-10.44-4.06-11.88 0 0 1.71-.88 5.38-2.38Zm-4.25-10.63c-3.83.92-5.5 1.5-5.5 1.5-2.38-6.48-3.8-10.54-6.41-16.78-2.49 6.25-5.24 14.84-7.13 21.12l-7.5 2.88c3.39-8.68 8.05-21.18 14.31-39.44 1.01.16 1.94.4 2.94.39 1 0 1.93-.24 2.93-.4 3.59 9.41 6.97 19.23 11.11 29.49 0 0-1.15.39-4.75 1.25Zm-5.5 2-13.67 3.67" class="cls-1"/><path d="M300.77 35.99s-48.22 1.46-78.49 17.16c-30.27 15.7 14.65 26.21 14.65 26.21h27.59s-41.03-5.75-27.48-19.58c15.48-15.79 63.73-23.79 63.73-23.79Z" class="cls-1"/><path d="m296.49 32.47 10.39-7.27-2.93-1.45s-.14-.22-.1-.54c.05-.3 2.05-7.51 2.05-7.51l-6.41 1.31s-1.19.14-1.44-.43c-.26-.57-1.05-3.09-1.05-3.09l-5.96 6.13s-.3.16-.65.1c-.35-.07-.81-.2-.72-1.04.09-.84 2.29-12.21 2.29-12.21l-3.82 1.79s-.94.22-1.3-.41L282.37.13l-.15-.11s-4.07 7.13-4.43 7.75c-.36.63-1.31.41-1.31.41l-3.82-1.76s2.24 11.37 2.34 12.21c.09.83-.36.97-.71 1.04-.35.07-.65-.1-.65-.1l-5.99-6.09s-.77 2.52-1.03 3.1c-.26.57-1.45.44-1.45.44l-6.41-1.28s2.04 7.2 2.1 7.5c.03.32-.09.55-.09.55l-2.94 1.46s11.05 8.53 11.74 9.12c.71.6.53 1.47.53 1.47l26.39-3.35Z" style="fill:#ee3124"/></svg>